<svg width="70" height="45" viewBox="0 0 70 45" fill="none" xmlns="http://www.w3.org/2000/svg">
<g clip-path="url(#clip0_2001_1624)">
<path d="M0 12.0838C4.09772 12.3112 9.04464 12.8993 11.8623 16.246C14.4052 19.2666 16.5485 27.1833 19.8049 28.5916C21.5907 29.3647 23.6403 28.9052 25.2263 27.867C25.3356 27.7965 25.4792 27.8012 25.4371 27.6067C23.5451 28.1305 21.1833 27.1488 20.1951 25.455C19.0025 23.4115 19.616 21.6707 20.4995 19.6853C22.1012 16.0814 24.0181 12.2438 25.7899 8.70574C28.812 2.67411 32.7334 0.301299 39.4802 0.0770347C39.6894 0.0707615 39.8845 -0.115864 40.0343 0.119378L20.3528 42.9524C19.0087 45.3064 15.4308 45.0272 14.1539 42.761L0 12.0838Z" fill="#101114"/>
<path d="M61.8047 31.1226H55.9149L53.7248 25.9049L42.7351 25.8861L40.634 31.1226H34.7863L34.6942 30.9469L44.9955 5.18788L45.2812 5.04517C47.2106 5.23336 49.56 4.81306 51.4379 5.04517C51.5316 5.05614 51.6283 5.04046 51.6908 5.13456L61.8047 31.1226ZM51.9031 20.8315L48.4017 11.0548L44.5615 20.8315H51.9031Z" fill="#101114"/>
<path d="M69.9999 31.0379C68.7917 31.0599 67.5772 31.0097 66.3689 31.0348C66.0193 31.0426 64.3973 31.2826 64.2319 31.0395C64.1804 30.9783 64.2818 30.9313 64.2818 30.9093V5.05144H69.8735L70.0015 5.18004V31.0379H69.9999Z" fill="#101114"/>
</g>
<defs>
<clipPath id="clip0_2001_1624">
<rect width="70" height="44.5926" fill="white"/>
</clipPath>
</defs>
</svg>
